<svg xmlns="http://www.w3.org/2000/svg" viewBox="0 0 64 64" role="img" aria-label="OmniTel">
  <defs>
    <linearGradient id="omnitel-fiber" x1="14" y1="52" x2="48" y2="8" gradientUnits="userSpaceOnUse">
      <stop offset="0" stop-color="#0066FF"/>
      <stop offset=".54" stop-color="#00B7FF"/>
      <stop offset="1" stop-color="#55E4FF"/>
    </linearGradient>
    <filter id="omnitel-glow" x="-30%" y="-30%" width="160%" height="160%">
      <feGaussianBlur stdDeviation="1.4" result="blur"/>
      <feMerge>
        <feMergeNode in="blur"/>
        <feMergeNode in="SourceGraphic"/>
      </feMerge>
    </filter>
  </defs>
  <rect width="64" height="64" rx="14" fill="#0A1E3F"/>
  <g fill="none" stroke="url(#omnitel-fiber)" stroke-linecap="round" filter="url(#omnitel-glow)">
    <path d="M17 47c-5-13 4-27 18-37" stroke-width="4.4"/>
    <path d="M22 51c-8-11-1-28 21-40" stroke-width="4.4"/>
    <path d="M30 52c-11-6-7-22 14-33" stroke-width="4.4"/>
    <path d="M19 48c6 6 17 6 25-3" stroke-width="3.2" opacity=".9"/>
  </g>
  <g fill="#55E4FF" stroke="#0A1E3F" stroke-width="2">
    <circle cx="36" cy="10" r="4.4"/>
    <circle cx="44" cy="17" r="4.4"/>
    <circle cx="44" cy="30" r="4.4"/>
    <circle cx="34" cy="39" r="4.1"/>
    <circle cx="24" cy="49" r="3.5"/>
    <circle cx="53" cy="23" r="3.5"/>
  </g>
  <circle cx="44" cy="17" r="2" fill="#0A1E3F"/>
  <circle cx="44" cy="30" r="2" fill="#0A1E3F"/>
  <circle cx="34" cy="39" r="1.8" fill="#0A1E3F"/>
</svg>
